G04*
G04 #@! TF.GenerationSoftware,Altium Limited,Altium Designer,21.6.1 (37)*
G04*
G04 Layer_Color=8388736*
%FSLAX44Y44*%
%MOMM*%
G71*
G04*
G04 #@! TF.SameCoordinates,EFDC213E-3E19-4D1F-A943-6121D485AE74*
G04*
G04*
G04 #@! TF.FilePolarity,Negative*
G04*
G01*
G75*
%ADD31R,0.6400X0.7000*%
%ADD32R,0.6600X0.7000*%
%ADD33R,2.1000X0.5000*%
%ADD34R,0.9500X0.4000*%
%ADD35R,0.4000X0.9500*%
%ADD36R,5.1000X5.1000*%
%ADD37R,0.7000X0.6600*%
%ADD38R,0.9500X0.7500*%
%ADD39R,0.9500X0.6500*%
%ADD40R,0.7000X1.6500*%
%ADD41R,1.3000X1.9000*%
%ADD42R,0.7000X0.6400*%
%ADD43R,1.4208X0.6588*%
%ADD44R,1.8000X0.8000*%
%ADD45C,0.6040*%
D31*
X280570Y186750D02*
D03*
X271930D02*
D03*
X280570Y177750D02*
D03*
X271930D02*
D03*
X280570Y169000D02*
D03*
X271930D02*
D03*
X280570Y160250D02*
D03*
X271930D02*
D03*
D32*
X279850Y110000D02*
D03*
X271150D02*
D03*
D33*
X269250Y149750D02*
D03*
Y137750D02*
D03*
Y125750D02*
D03*
D34*
X295500Y184750D02*
D03*
Y179750D02*
D03*
Y174750D02*
D03*
Y169750D02*
D03*
Y164750D02*
D03*
Y159750D02*
D03*
Y154750D02*
D03*
Y149750D02*
D03*
Y144750D02*
D03*
Y139750D02*
D03*
Y134750D02*
D03*
Y129750D02*
D03*
X364500D02*
D03*
Y134750D02*
D03*
Y139750D02*
D03*
Y144750D02*
D03*
Y149750D02*
D03*
Y154750D02*
D03*
Y159750D02*
D03*
Y164750D02*
D03*
Y169750D02*
D03*
Y174750D02*
D03*
Y179750D02*
D03*
Y184750D02*
D03*
D35*
X302500Y122750D02*
D03*
X307500D02*
D03*
X312500D02*
D03*
X317500D02*
D03*
X322500D02*
D03*
X327500D02*
D03*
X332500D02*
D03*
X337500D02*
D03*
X342500D02*
D03*
X347500D02*
D03*
X352500D02*
D03*
X357500D02*
D03*
Y191750D02*
D03*
X352500D02*
D03*
X347500D02*
D03*
X342500D02*
D03*
X337500D02*
D03*
X332500D02*
D03*
X327500D02*
D03*
X322500D02*
D03*
X317500D02*
D03*
X312500D02*
D03*
X307500D02*
D03*
X302500D02*
D03*
D36*
X330000Y157250D02*
D03*
D37*
X316750Y205650D02*
D03*
Y214350D02*
D03*
X306500Y206400D02*
D03*
Y215100D02*
D03*
X293250Y212400D02*
D03*
Y221100D02*
D03*
X280500Y212900D02*
D03*
Y221600D02*
D03*
X268750Y213150D02*
D03*
Y221850D02*
D03*
X336750Y101400D02*
D03*
Y110100D02*
D03*
X327000Y109850D02*
D03*
Y101150D02*
D03*
D38*
X294000Y243000D02*
D03*
X279500D02*
D03*
D39*
X294000Y234500D02*
D03*
X279500D02*
D03*
D40*
X339500Y218500D02*
D03*
X389500D02*
D03*
X379500D02*
D03*
X369500D02*
D03*
X359500D02*
D03*
X349500D02*
D03*
D41*
X402500Y257250D02*
D03*
X326500D02*
D03*
D42*
X407000Y109570D02*
D03*
Y100930D02*
D03*
X349750Y108570D02*
D03*
Y99930D02*
D03*
D43*
X366566Y109398D02*
D03*
Y100000D02*
D03*
Y90602D02*
D03*
X389934D02*
D03*
Y109398D02*
D03*
D44*
X392750Y189000D02*
D03*
Y176500D02*
D03*
Y164000D02*
D03*
Y151500D02*
D03*
D45*
X275082Y227838D02*
D03*
X310642Y243078D02*
D03*
X395478Y122936D02*
D03*
X320040Y103886D02*
D03*
M02*
