G04*
G04 #@! TF.GenerationSoftware,Altium Limited,Altium Designer,21.6.1 (37)*
G04*
G04 Layer_Physical_Order=4*
G04 Layer_Color=16711680*
%FSLAX44Y44*%
%MOMM*%
G71*
G04*
G04 #@! TF.SameCoordinates,EFDC213E-3E19-4D1F-A943-6121D485AE74*
G04*
G04*
G04 #@! TF.FilePolarity,Positive*
G04*
G01*
G75*
%ADD47C,0.7000*%
%ADD48C,0.5040*%
%ADD49C,0.9000*%
G36*
X411701Y261194D02*
Y95056D01*
X401694Y85049D01*
X271556D01*
X257049Y99556D01*
Y261694D01*
X263806Y268451D01*
X404444D01*
X411701Y261194D01*
D02*
G37*
%LPC*%
G36*
X311396Y246868D02*
X309888D01*
X308495Y246291D01*
X307429Y245225D01*
X306852Y243832D01*
Y242324D01*
X307429Y240931D01*
X308495Y239865D01*
X309888Y239288D01*
X311396D01*
X312789Y239865D01*
X313855Y240931D01*
X314432Y242324D01*
Y243832D01*
X313855Y245225D01*
X312789Y246291D01*
X311396Y246868D01*
D02*
G37*
G36*
X275836Y231628D02*
X274328D01*
X272935Y231051D01*
X271869Y229985D01*
X271292Y228592D01*
Y227084D01*
X271869Y225691D01*
X272935Y224625D01*
X274328Y224048D01*
X275836D01*
X277229Y224625D01*
X278295Y225691D01*
X278872Y227084D01*
Y228592D01*
X278295Y229985D01*
X277229Y231051D01*
X275836Y231628D01*
D02*
G37*
G36*
X393898Y182270D02*
X391602D01*
X389482Y181392D01*
X387859Y179768D01*
X386980Y177648D01*
Y175352D01*
X387859Y173232D01*
X389482Y171609D01*
X391102Y170937D01*
Y169563D01*
X389482Y168892D01*
X387859Y167269D01*
X386980Y165148D01*
Y162852D01*
X387859Y160732D01*
X389482Y159109D01*
X391102Y158437D01*
Y157063D01*
X389482Y156391D01*
X387859Y154768D01*
X386980Y152647D01*
Y150352D01*
X387859Y148231D01*
X389482Y146608D01*
X391602Y145730D01*
X393898D01*
X396018Y146608D01*
X397642Y148231D01*
X398520Y150352D01*
Y152647D01*
X397642Y154768D01*
X396018Y156391D01*
X394398Y157063D01*
Y158437D01*
X396018Y159109D01*
X397642Y160732D01*
X398520Y162852D01*
Y165148D01*
X397642Y167269D01*
X396018Y168892D01*
X394398Y169563D01*
Y170937D01*
X396018Y171609D01*
X397642Y173232D01*
X398520Y175352D01*
Y177648D01*
X397642Y179768D01*
X396018Y181392D01*
X393898Y182270D01*
D02*
G37*
G36*
X396232Y126726D02*
X394724D01*
X393331Y126149D01*
X392265Y125083D01*
X391688Y123690D01*
Y122182D01*
X392265Y120789D01*
X393331Y119723D01*
X394724Y119146D01*
X396232D01*
X397625Y119723D01*
X398691Y120789D01*
X399268Y122182D01*
Y123690D01*
X398691Y125083D01*
X397625Y126149D01*
X396232Y126726D01*
D02*
G37*
G36*
X320794Y107676D02*
X319286D01*
X317893Y107099D01*
X316827Y106033D01*
X316250Y104640D01*
Y103132D01*
X316827Y101739D01*
X317893Y100673D01*
X319286Y100096D01*
X320794D01*
X322187Y100673D01*
X323253Y101739D01*
X323830Y103132D01*
Y104640D01*
X323253Y106033D01*
X322187Y107099D01*
X320794Y107676D01*
D02*
G37*
%LPD*%
D47*
X406000Y206000D02*
D03*
Y126000D02*
D03*
X386000Y246000D02*
D03*
X376000Y146000D02*
D03*
X366000Y246000D02*
D03*
X346000D02*
D03*
X296000Y106000D02*
D03*
D48*
X275082Y227838D02*
D03*
X310642Y243078D02*
D03*
X395478Y122936D02*
D03*
X320040Y103886D02*
D03*
D49*
X392750Y189000D02*
D03*
Y176500D02*
D03*
Y164000D02*
D03*
Y151500D02*
D03*
M02*
