G04*
G04 #@! TF.GenerationSoftware,Altium Limited,Altium Designer,21.6.1 (37)*
G04*
G04 Layer_Color=65535*
%FSLAX44Y44*%
%MOMM*%
G71*
G04*
G04 #@! TF.SameCoordinates,EFDC213E-3E19-4D1F-A943-6121D485AE74*
G04*
G04*
G04 #@! TF.FilePolarity,Positive*
G04*
G01*
G75*
%ADD10C,0.0000*%
%ADD11C,0.2500*%
%ADD12C,0.2000*%
%ADD13C,0.1524*%
%ADD14C,0.1000*%
%ADD15C,0.1270*%
%ADD16C,0.1700*%
%ADD17C,0.2540*%
D10*
X280520Y120750D02*
G03*
X280520Y120750I-1270J0D01*
G01*
D11*
X292500Y192250D02*
G03*
X292500Y192250I-1250J0D01*
G01*
D12*
X398500Y213500D02*
G03*
X398500Y213500I-1000J0D01*
G01*
X379250Y189000D02*
G03*
X379250Y189000I-1000J0D01*
G01*
D13*
X376472Y112192D02*
G03*
X380028Y112192I1778J2276D01*
G01*
X376472D02*
G03*
X380028Y112192I1778J2276D01*
G01*
D14*
X284750Y246250D02*
X288750D01*
X284750Y231250D02*
X288750D01*
D15*
X396500Y221750D02*
X404500D01*
Y244500D01*
X324500Y221750D02*
X332500D01*
X324500D02*
Y244500D01*
X336500Y264250D02*
X392500D01*
X394750Y129000D02*
X409050D01*
X394750D02*
Y145250D01*
Y195250D02*
Y211500D01*
X409050D01*
X437250Y141250D02*
Y199250D01*
D16*
X300950Y234949D02*
X304949D01*
X302949Y236949D02*
Y232950D01*
X409050Y150469D02*
Y154468D01*
X407051Y156467D01*
X405051Y154468D01*
Y150469D01*
X409050Y161747D02*
Y167745D01*
X406051D01*
X405051Y166745D01*
Y162747D01*
X406051Y161747D01*
X409050D01*
X405051Y174024D02*
X406051Y173024D01*
X408050D01*
X409050Y174024D01*
Y178023D01*
X408050Y179022D01*
X406051D01*
X405051Y178023D01*
Y185302D02*
X406051Y184302D01*
X408050D01*
X409050Y185302D01*
Y189300D01*
X408050Y190300D01*
X406051D01*
X405051Y189300D01*
Y187301D01*
X407051D01*
X283085Y125749D02*
Y124583D01*
X285417Y122250D01*
X287750Y124583D01*
Y125749D01*
X285417Y122250D02*
Y118751D01*
X290083D02*
X292415D01*
X291249D01*
Y125749D01*
X290083Y124583D01*
X373585Y123749D02*
Y117917D01*
X374751Y116751D01*
X377084D01*
X378250Y117917D01*
Y123749D01*
X380583Y116751D02*
X382915D01*
X381749D01*
Y123749D01*
X380583Y122583D01*
X375417Y160502D02*
X374251Y159336D01*
Y157003D01*
X375417Y155837D01*
X376584D01*
X377750Y157003D01*
Y159336D01*
X378916Y160502D01*
X380083D01*
X381249Y159336D01*
Y157003D01*
X380083Y155837D01*
X374251Y162835D02*
X381249D01*
X378916Y165167D01*
X381249Y167500D01*
X374251D01*
Y169833D02*
X381249D01*
Y173332D01*
X380083Y174498D01*
X375417D01*
X374251Y173332D01*
Y169833D01*
X381249Y176830D02*
Y179163D01*
Y177997D01*
X374251D01*
X375417Y176830D01*
X324920Y88001D02*
Y94999D01*
X328419D01*
X329585Y93833D01*
Y91500D01*
X328419Y90334D01*
X324920D01*
X327252D02*
X329585Y88001D01*
X331917Y92666D02*
X334250Y88001D01*
X336583Y92666D01*
X343580Y88001D02*
X338915D01*
X343580Y92666D01*
Y93833D01*
X342414Y94999D01*
X340081D01*
X338915Y93833D01*
X319499Y95586D02*
X312501D01*
Y99085D01*
X313667Y100251D01*
X316000D01*
X317166Y99085D01*
Y95586D01*
Y97919D02*
X319499Y100251D01*
X314834Y102584D02*
X319499Y104916D01*
X314834Y107249D01*
X319499Y109581D02*
Y111914D01*
Y110748D01*
X312501D01*
X313667Y109581D01*
X267503Y95751D02*
Y102749D01*
X271002D01*
X272168Y101583D01*
Y99250D01*
X271002Y98084D01*
X267503D01*
X269835D02*
X272168Y95751D01*
X274501D02*
X276833D01*
X275667D01*
Y102749D01*
X274501Y101583D01*
X280332Y102749D02*
X284997D01*
Y101583D01*
X280332Y96917D01*
Y95751D01*
X303249Y207503D02*
X296251D01*
Y211002D01*
X297417Y212168D01*
X299750D01*
X300916Y211002D01*
Y207503D01*
Y209835D02*
X303249Y212168D01*
Y214501D02*
Y216833D01*
Y215667D01*
X296251D01*
X297417Y214501D01*
X296251Y224997D02*
X297417Y222665D01*
X299750Y220332D01*
X302083D01*
X303249Y221498D01*
Y223831D01*
X302083Y224997D01*
X300916D01*
X299750Y223831D01*
Y220332D01*
X262499Y211253D02*
X255501D01*
Y214752D01*
X256667Y215918D01*
X259000D01*
X260166Y214752D01*
Y211253D01*
Y213585D02*
X262499Y215918D01*
Y218251D02*
Y220583D01*
Y219417D01*
X255501D01*
X256667Y218251D01*
X255501Y228747D02*
Y224082D01*
X259000D01*
X257834Y226415D01*
Y227581D01*
X259000Y228747D01*
X261333D01*
X262499Y227581D01*
Y225248D01*
X261333Y224082D01*
X276753Y200251D02*
Y207249D01*
X280252D01*
X281418Y206083D01*
Y203750D01*
X280252Y202584D01*
X276753D01*
X279085D02*
X281418Y200251D01*
X283751D02*
X286083D01*
X284917D01*
Y207249D01*
X283751Y206083D01*
X293081Y200251D02*
Y207249D01*
X289582Y203750D01*
X294247D01*
X328999Y201503D02*
X322001D01*
Y205002D01*
X323167Y206168D01*
X325500D01*
X326666Y205002D01*
Y201503D01*
Y203835D02*
X328999Y206168D01*
Y208500D02*
Y210833D01*
Y209667D01*
X322001D01*
X323167Y208500D01*
X328999Y218997D02*
Y214332D01*
X324334Y218997D01*
X323167D01*
X322001Y217831D01*
Y215498D01*
X323167Y214332D01*
X314499Y220669D02*
X307501D01*
Y224168D01*
X308667Y225334D01*
X311000D01*
X312166Y224168D01*
Y220669D01*
Y223002D02*
X314499Y225334D01*
Y227667D02*
Y229999D01*
Y228833D01*
X307501D01*
X308667Y227667D01*
X314499Y233498D02*
Y235831D01*
Y234665D01*
X307501D01*
X308667Y233498D01*
X267587Y262499D02*
Y255501D01*
X272252D01*
X279250Y262499D02*
X274585D01*
Y255501D01*
X279250D01*
X274585Y259000D02*
X276917D01*
X281583Y262499D02*
Y255501D01*
X285081D01*
X286248Y256667D01*
Y261333D01*
X285081Y262499D01*
X281583D01*
X288580Y255501D02*
X290913D01*
X289747D01*
Y262499D01*
X288580Y261333D01*
X339919Y205999D02*
X342252D01*
X341085D01*
Y199001D01*
X339919D01*
X342252D01*
X350416Y204833D02*
X349249Y205999D01*
X346917D01*
X345751Y204833D01*
Y200167D01*
X346917Y199001D01*
X349249D01*
X350416Y200167D01*
X352748Y199001D02*
X355081D01*
X353915D01*
Y205999D01*
X352748Y204833D01*
X346923Y260749D02*
Y253751D01*
X350422D01*
X351588Y254917D01*
Y259583D01*
X350422Y260749D01*
X346923D01*
X358586D02*
X353921D01*
Y253751D01*
X358586D01*
X353921Y257250D02*
X356253D01*
X360919Y260749D02*
Y253751D01*
X364417D01*
X365584Y254917D01*
Y256084D01*
X364417Y257250D01*
X360919D01*
X364417D01*
X365584Y258416D01*
Y259583D01*
X364417Y260749D01*
X360919D01*
X367916D02*
Y254917D01*
X369083Y253751D01*
X371415D01*
X372581Y254917D01*
Y260749D01*
X379579Y259583D02*
X378413Y260749D01*
X376080D01*
X374914Y259583D01*
Y254917D01*
X376080Y253751D01*
X378413D01*
X379579Y254917D01*
Y257250D01*
X377247D01*
X381912Y259583D02*
X383078Y260749D01*
X385411D01*
X386577Y259583D01*
Y258416D01*
X384244Y256084D01*
Y254917D02*
Y253751D01*
X253168Y160583D02*
X252002Y161749D01*
X249669D01*
X248503Y160583D01*
Y155917D01*
X249669Y154751D01*
X252002D01*
X253168Y155917D01*
X255501Y154751D02*
X257833D01*
X256667D01*
Y161749D01*
X255501Y160583D01*
X265997Y161749D02*
X263665Y160583D01*
X261332Y158250D01*
Y155917D01*
X262498Y154751D01*
X264831D01*
X265997Y155917D01*
Y157084D01*
X264831Y158250D01*
X261332D01*
X253668Y189583D02*
X252502Y190749D01*
X250169D01*
X249003Y189583D01*
Y184917D01*
X250169Y183751D01*
X252502D01*
X253668Y184917D01*
X256001Y183751D02*
X258333D01*
X257167D01*
Y190749D01*
X256001Y189583D01*
X266497Y190749D02*
X261832D01*
Y187250D01*
X264165Y188416D01*
X265331D01*
X266497Y187250D01*
Y184917D01*
X265331Y183751D01*
X262998D01*
X261832Y184917D01*
X253918Y179583D02*
X252752Y180749D01*
X250419D01*
X249253Y179583D01*
Y174917D01*
X250419Y173751D01*
X252752D01*
X253918Y174917D01*
X256251Y173751D02*
X258583D01*
X257417D01*
Y180749D01*
X256251Y179583D01*
X265581Y173751D02*
Y180749D01*
X262082Y177250D01*
X266747D01*
X253168Y170583D02*
X252002Y171749D01*
X249669D01*
X248503Y170583D01*
Y165917D01*
X249669Y164751D01*
X252002D01*
X253168Y165917D01*
X255501Y164751D02*
X257833D01*
X256667D01*
Y171749D01*
X255501Y170583D01*
X261332D02*
X262498Y171749D01*
X264831D01*
X265997Y170583D01*
Y169416D01*
X264831Y168250D01*
X263665D01*
X264831D01*
X265997Y167084D01*
Y165917D01*
X264831Y164751D01*
X262498D01*
X261332Y165917D01*
X403584Y121583D02*
X402417Y122749D01*
X400085D01*
X398918Y121583D01*
Y116917D01*
X400085Y115751D01*
X402417D01*
X403584Y116917D01*
X410581Y115751D02*
X405916D01*
X410581Y120416D01*
Y121583D01*
X409415Y122749D01*
X407083D01*
X405916Y121583D01*
X351750Y93833D02*
X350584Y94999D01*
X348251D01*
X347085Y93833D01*
Y89167D01*
X348251Y88001D01*
X350584D01*
X351750Y89167D01*
X354083Y88001D02*
X356415D01*
X355249D01*
Y94999D01*
X354083Y93833D01*
D17*
X273288Y233416D02*
X272122D01*
Y234582D01*
X273288D01*
Y233416D01*
M02*
